<svg xmlns="http://www.w3.org/2000/svg" xmlns:xlink="http://www.w3.org/1999/xlink" width="1080" zoomAndPan="magnify" viewBox="0 0 810 809.999993" height="1080" preserveAspectRatio="xMidYMid meet" version="1.0"><defs><clipPath id="50f9d27d5f"><path d="M 8.242188 14 L 801.597656 14 L 801.597656 795.609375 L 8.242188 795.609375 Z M 8.242188 14 " clip-rule="nonzero"/></clipPath></defs><g clip-path="url(#50f9d27d5f)"><path stroke-linecap="butt" transform="matrix(11.033589, 0, 0, 11.028168, -3477.160142, -2518.540173)" fill="none" stroke-linejoin="miter" d="M 386.569952 265.079823 C 386.569952 284.599794 370.750006 300.420078 351.229711 300.420078 C 331.70977 300.420078 315.890178 284.599794 315.890178 265.079823 C 315.890178 245.560205 331.70977 229.740275 351.229711 229.740275 C 370.750006 229.740275 386.569952 245.560205 386.569952 265.079823 Z M 386.569952 265.079823 " stroke="#004990" stroke-width="2" stroke-opacity="1" stroke-miterlimit="3.864"/></g><path fill="#004990" d="M 470.769531 701.132812 C 476.613281 698.820312 486.324219 690.984375 487.542969 687.457031 C 488.75 683.929688 492.175781 684.703125 492.945312 687.457031 C 493.71875 690.214844 496.035156 697.164062 497.578125 699.589844 C 499.121094 701.90625 499.121094 703.449219 496.804688 704.664062 C 494.488281 705.875 488.535156 704.992188 484.671875 707.308594 C 480.808594 709.625 475.953125 710.511719 472.753906 712.378906 C 469.667969 714.371094 467.351562 714.480469 463.375 714.480469 C 459.515625 714.480469 456.863281 716.238281 454.878906 716.570312 C 452.894531 717.015625 446.050781 716.128906 442.964844 716.128906 C 439.875 716.128906 435.019531 717.457031 432.371094 717.457031 C 429.609375 717.457031 427.078125 715.136719 429.835938 713.152344 C 432.59375 711.167969 435.238281 710.394531 438.332031 709.953125 C 441.417969 709.519531 445.726562 708.410156 448.042969 706.425781 C 450.351562 704.441406 451.570312 702.898438 451.570312 702.898438 C 451.570312 702.898438 459.40625 702.457031 463.265625 702.125 C 467.234375 701.90625 464.925781 703.449219 470.769531 701.132812 Z M 400.484375 555.5625 C 403.910156 557.550781 411.628906 560.742188 412.070312 563.835938 C 412.511719 566.921875 408.320312 576.40625 403.683594 576.40625 C 399.050781 576.40625 377.421875 564.386719 380.84375 558.433594 C 386.800781 548.394531 394.746094 552.144531 400.484375 555.5625 Z M 553.851562 262.984375 C 547.78125 262.214844 541.605469 259.898438 546.238281 255.488281 C 551.316406 250.632812 550.101562 246.332031 552.859375 242.914062 C 555.394531 239.820312 558.261719 236.628906 557.496094 233.652344 C 556.71875 230.675781 550.757812 226.921875 553.742188 223.835938 C 556.71875 220.855469 562.015625 212.582031 564.222656 205.746094 C 566.429688 199.019531 578.453125 171.121094 580.769531 165.167969 C 582.980469 159.097656 582.980469 153.144531 586.074219 149.390625 C 589.050781 145.648438 603.171875 124.578125 612.332031 123.035156 C 620.277344 121.601562 626.339844 123.261719 626.339844 123.261719 C 626.339844 123.261719 646.644531 138.917969 650.949219 143.332031 C 656.683594 149.175781 697.066406 199.132812 702.144531 207.296875 C 704.792969 211.589844 736.125 271.804688 740.542969 287.027344 C 742.195312 292.871094 748.371094 309.082031 750.6875 317.902344 C 751.570312 321.105469 758.523438 365.101562 758.523438 365.101562 C 758.523438 365.101562 743.300781 372.273438 740.757812 362.125 C 739.324219 356.503906 735.246094 334.445312 733.699219 329.925781 C 732.15625 325.40625 727.1875 316.144531 726.085938 312.058594 C 724.984375 307.871094 722.003906 296.734375 720.460938 292.207031 C 718.917969 287.6875 709.421875 265.082031 707.21875 259.121094 C 705.011719 253.0625 703.027344 245.558594 702.035156 243.355469 C 700.484375 239.828125 690.671875 222.953125 701.152344 220.085938 C 711.1875 217.328125 690.78125 195.492188 686.585938 194.605469 C 676.875 192.621094 654.257812 183.25 646.097656 185.785156 C 643.003906 186.777344 640.246094 192.40625 642.5625 195.492188 C 644.769531 198.46875 662.644531 202.328125 667.054688 204.644531 C 670.808594 206.628906 678.976562 209.832031 678.308594 215.894531 C 677.867188 219.09375 674.449219 223.945312 678.976562 227.03125 C 683.496094 230.007812 690.222656 230.125 689.121094 239.828125 C 688.019531 249.535156 690.78125 253.167969 695.082031 259.121094 C 698.835938 264.308594 699.933594 273.128906 702.253906 277.980469 C 704.128906 281.953125 690.890625 279.308594 689.011719 274.898438 C 686.804688 269.601562 679.851562 254.160156 675.773438 250.410156 C 672.242188 247.214844 666.613281 250.085938 667.386719 253.828125 C 668.15625 257.582031 675.882812 273.570312 679.742188 278.648438 C 684.378906 284.601562 696.625 289.230469 699.601562 295.300781 C 702.585938 301.253906 708.539062 308.863281 710.855469 312.609375 C 713.066406 316.359375 722.003906 324.855469 723.101562 340.621094 C 723.878906 351.101562 728.730469 361.800781 730.28125 365.542969 C 731.824219 369.296875 723.328125 370.621094 720.566406 368.085938 C 716.042969 363.890625 713.289062 359.039062 712.847656 352.3125 C 712.40625 344.148438 707.664062 323.972656 700.160156 313.382812 C 691.546875 301.035156 687.246094 296.292969 683.496094 293.316406 C 679.742188 290.335938 668.273438 279.640625 664.519531 274.789062 C 660.210938 269.160156 653.484375 258.246094 651.273438 250.632812 C 649.074219 243.132812 641.238281 245.007812 640.019531 251.625 C 638.917969 258.023438 638.917969 263.535156 647.195312 273.355469 C 655.46875 283.167969 658.335938 290.664062 665.070312 292.097656 C 671.800781 293.640625 675.550781 292.097656 680.84375 301.144531 C 686.144531 310.1875 699.382812 332.792969 700.152344 337.980469 C 700.925781 343.273438 686.914062 341.949219 684.820312 334.886719 C 682.945312 328.714844 677.207031 313.714844 675 309.964844 C 672.792969 306.214844 671.023438 301.476562 666.503906 304.5625 C 661.980469 307.539062 668.15625 316.359375 669.589844 319.886719 C 671.25 324.304688 662.863281 327.5 659.109375 322.980469 C 655.359375 318.460938 652.933594 309.191406 650.617188 305.003906 C 648.632812 301.253906 643.554688 296.292969 641.011719 297.5 C 635.941406 299.925781 639.253906 308.53125 640.6875 314.484375 C 642.230469 320.554688 637.375 323.195312 633.074219 320.003906 C 627.003906 315.476562 628.214844 304.230469 624.464844 298.933594 C 620.710938 293.640625 614.644531 290.664062 613.984375 285.371094 C 613.210938 280.082031 614.203125 272.914062 616.960938 270.378906 C 622.261719 265.523438 619.945312 261 619.277344 257.582031 C 618.617188 254.605469 616.632812 251.734375 616.300781 247.550781 C 615.96875 241.480469 619.945312 241.371094 621.488281 238.394531 C 623.03125 235.417969 622.589844 230.234375 621.703125 227.148438 C 620.710938 223.722656 617.402344 219.09375 623.363281 217.660156 C 629.433594 216.117188 631.859375 217.21875 635.609375 218.652344 C 639.359375 220.195312 648.515625 225.597656 651.5 225.597656 C 654.476562 225.597656 665.398438 225.820312 663.519531 216.777344 C 662.972656 214.132812 655.25 209.390625 652.265625 210.929688 C 649.289062 212.472656 643.328125 212.808594 640.019531 210.164062 C 635.609375 206.738281 623.363281 194.722656 622.589844 193.289062 C 621.820312 191.746094 628.214844 177.847656 634.285156 175.640625 C 640.351562 173.4375 648.515625 171.777344 646.3125 166.492188 C 644.105469 161.199219 635.277344 160.089844 632.957031 156.230469 C 630.757812 152.484375 624.464844 146.199219 619.945312 149.285156 C 615.417969 152.261719 610.234375 153.144531 607.257812 153.804688 C 604.273438 154.578125 598.976562 159.097656 597.433594 165.058594 C 595.886719 171.121094 582.980469 194.832031 582.429688 202.660156 C 582.207031 205.746094 572.609375 213.140625 574.152344 217 C 575.695312 220.746094 578.679688 219.203125 581.65625 219.976562 C 584.632812 220.746094 583.199219 226.707031 579.445312 231.226562 C 575.695312 235.746094 575.253906 241.148438 574.152344 243.246094 C 572.386719 246.773438 565.65625 245.558594 564.554688 249.199219 C 562.347656 256.371094 558.59375 260.117188 553.851562 262.984375 Z M 601.296875 108.148438 C 601.296875 108.148438 576.910156 120.945312 572.386719 126.457031 C 568.859375 130.757812 564.113281 152.925781 562.457031 155.460938 C 560.804688 157.996094 559.253906 161.964844 559.253906 166.160156 C 559.253906 170.34375 560.03125 172.886719 555.835938 183.582031 C 551.644531 194.390625 548.332031 200.125 546.683594 208.398438 C 545.023438 216.667969 549.992188 221.628906 545.796875 229.125 C 541.605469 236.628906 537.519531 241.148438 536.636719 245.230469 C 535.867188 249.417969 531.785156 254.710938 530.125 258.796875 C 528.476562 262.984375 516.886719 267.066406 519.3125 259.671875 C 521.855469 252.175781 528.691406 229.898438 533.660156 204.203125 C 538.628906 178.507812 538.953125 165.273438 547.675781 139.136719 C 555.835938 114.546875 587.171875 96.574219 587.171875 96.574219 Z M 601.296875 108.148438 " fill-opacity="1" fill-rule="evenodd"/><path fill="#004990" d="M 518.4375 523.25 C 515.011719 527 509.71875 531.628906 505.523438 534.277344 C 501.332031 536.921875 500.230469 543.757812 499.789062 549.496094 C 499.457031 555.230469 508.5 560.082031 511.152344 559.425781 C 513.800781 558.648438 513.027344 553.355469 511.925781 548.394531 C 510.820312 543.433594 514.242188 539.238281 518.320312 538.582031 C 522.515625 537.804688 522.074219 543.101562 525.164062 552.582031 C 528.140625 562.066406 536.195312 566.585938 540.386719 567.03125 C 544.582031 567.363281 549 566.371094 557.9375 568.464844 C 564.996094 570.121094 571.175781 571.992188 570.398438 576.515625 C 569.632812 581.035156 573.382812 587.539062 576.136719 586.773438 C 578.785156 585.996094 582.980469 579.933594 582.207031 576.84375 C 581.4375 573.757812 571.175781 563.167969 562.128906 558.984375 C 552.96875 554.789062 548.441406 554.457031 542.707031 546.851562 C 536.96875 539.238281 540.0625 526.335938 540.832031 516.519531 C 541.605469 506.707031 537.855469 503.507812 532.445312 504.28125 C 527.148438 505.054688 523.839844 507.257812 524.28125 512.992188 C 524.722656 517.402344 521.964844 519.496094 518.429688 523.25 Z M 459.074219 559.089844 C 450.6875 557.214844 452.121094 561.292969 452.453125 563.835938 C 452.785156 566.371094 457.972656 570.78125 459.074219 572.214844 C 460.171875 573.648438 456.644531 584.238281 465.800781 580.59375 C 468.234375 579.601562 469.667969 582.804688 471.871094 585.996094 C 474.078125 589.308594 473.304688 593.277344 472.976562 595.816406 C 472.644531 598.351562 477.722656 599.785156 481.03125 603.421875 C 486.550781 609.601562 497.472656 610.703125 504.75 610.703125 C 512.035156 610.703125 522.625 610.375 530.683594 605.957031 C 536.863281 602.539062 547.675781 599.785156 550.984375 598.246094 C 554.292969 596.808594 561.570312 600.113281 564.222656 598.792969 C 567.867188 596.917969 565.988281 592.507812 564.222656 589.964844 C 562.347656 587.429688 557.160156 586.773438 554.511719 587.105469 C 551.976562 587.429688 548.441406 586.664062 544.140625 585.230469 C 539.730469 583.796875 537.628906 581.585938 531.011719 583.355469 C 524.390625 585.230469 508.726562 585.230469 501.441406 582.253906 C 494.160156 579.386719 490.078125 571 487.984375 565.820312 C 485.773438 560.527344 479.046875 566.371094 475.070312 565.59375 C 471.871094 565.269531 466.574219 560.742188 459.074219 559.089844 Z M 500.449219 645.769531 C 500.671875 649.964844 503.980469 656.140625 505.523438 658.015625 C 507.066406 659.886719 512.695312 667.164062 516.777344 668.15625 C 519.429688 668.820312 527.257812 667.164062 531.117188 666.722656 C 537.628906 665.953125 539.179688 656.910156 531.558594 654.925781 C 526.375 653.597656 521.855469 652.390625 520.304688 645.21875 C 518.65625 637.722656 519.097656 634.746094 511.703125 635.074219 C 507.398438 635.179688 499.898438 635.625 500.449219 645.769531 Z M 538.953125 626.800781 C 542.597656 625.367188 559.921875 624.925781 562.128906 625.699219 C 564.332031 626.476562 568.632812 630.996094 570.183594 634.523438 C 570.734375 635.738281 576.46875 644.777344 574.261719 648.746094 C 572.058594 652.832031 569.632812 655.917969 570.183594 660.992188 C 570.625 665.070312 575.257812 667.496094 580.886719 665.070312 C 586.515625 662.644531 583.421875 659.007812 590.484375 655.472656 C 593.242188 654.15625 592.359375 639.265625 592.359375 637.390625 C 592.359375 635.515625 589.382812 626.691406 587.613281 624.484375 C 585.738281 622.28125 581.328125 619.746094 580.996094 617.539062 C 580.664062 615.335938 578.785156 611.253906 574.375 610.917969 C 569.957031 610.59375 552.195312 612.792969 545.246094 615.113281 C 538.402344 617.429688 535.3125 622.28125 534.210938 624.15625 C 533.109375 626.035156 533.878906 629.011719 538.953125 626.800781 Z M 673.785156 505.933594 C 672.683594 507.480469 670.03125 510.015625 671.472656 513.875 C 672.574219 516.960938 678.308594 524.132812 681.402344 528.324219 C 684.488281 532.511719 685.921875 549.164062 683.164062 558.316406 C 681.621094 563.71875 687.355469 565.488281 687.914062 571.113281 C 688.570312 577.175781 682.285156 577.402344 682.285156 579.710938 C 682.285156 582.027344 687.136719 590.957031 681.726562 597.027344 C 678.199219 601.105469 681.175781 613.679688 684.269531 613.785156 C 689.230469 614.011719 696.515625 606.949219 699.828125 603.3125 C 702.804688 599.894531 714.832031 579.269531 712.515625 574.308594 C 709.539062 567.695312 704.679688 568.128906 705.785156 561.183594 C 706.335938 557.765625 710.195312 549.386719 708.980469 546.628906 C 707.878906 543.984375 705.894531 543.652344 702.144531 537.914062 C 698.390625 532.179688 696.847656 525.34375 695.632812 521.921875 C 694.53125 518.503906 691.105469 513.542969 689.898438 513.210938 C 688.789062 512.882812 688.019531 512.109375 686.144531 510.234375 C 684.488281 508.140625 679.851562 502.847656 673.789062 505.933594 Z M 717.039062 498.769531 C 711.414062 495.015625 709.863281 487.078125 708.320312 484.761719 C 706.777344 482.445312 696.847656 467.554688 693.425781 466.121094 C 689.789062 464.46875 679.410156 452.121094 668.378906 446.382812 C 657.34375 440.648438 647.855469 442.191406 634.949219 443.292969 C 622.039062 444.398438 599.96875 458.839844 596.21875 459.617188 C 592.46875 460.390625 588.273438 454.65625 583.640625 452.445312 C 579.121094 450.136719 576.46875 451.679688 571.507812 450.136719 C 566.539062 448.585938 565.4375 446.71875 559.695312 443.734375 C 553.960938 440.648438 550.984375 442.191406 546.347656 444.066406 C 541.824219 445.941406 547.125 449.800781 552.417969 451.679688 C 557.710938 453.554688 564.996094 453.996094 568.414062 458.183594 C 571.835938 462.375 566.539062 464.25 562.679688 464.691406 C 558.929688 465.019531 555.066406 462.375 552.417969 460.5 C 549.765625 458.625 545.691406 465.019531 547.230469 468.113281 C 548.773438 471.089844 552.417969 471.53125 555.503906 472.738281 C 558.488281 473.839844 569.957031 470.980469 572.609375 472.523438 C 575.257812 474.066406 573.933594 479.136719 572.71875 481.34375 C 571.617188 483.660156 573.710938 489.171875 576.800781 491.046875 C 579.886719 492.925781 555.617188 490.273438 554.734375 494.023438 C 552.859375 502.078125 561.023438 502.296875 566.097656 501.636719 C 572.71875 500.753906 569.851562 501.195312 588.941406 500.085938 C 615.527344 498.542969 631.859375 510.347656 639.46875 514.867188 C 647.082031 519.386719 654.476562 536.921875 655.140625 549.386719 C 655.910156 561.960938 649.074219 566.8125 647.964844 577.066406 C 646.863281 587.324219 653.816406 613.019531 655.359375 617.980469 C 656.910156 622.941406 664.847656 620.074219 664.519531 617.429688 C 664.1875 614.785156 665.179688 612.6875 667.828125 609.265625 C 670.472656 605.847656 671.800781 605.523438 669.480469 600.113281 C 667.164062 594.824219 665.289062 588.867188 665.289062 579.386719 C 665.289062 569.898438 668.046875 570.339844 671.140625 552.914062 C 674.117188 535.488281 664.960938 517.402344 660.769531 506.707031 C 656.574219 496.117188 634.175781 487.296875 629.980469 484.652344 C 625.789062 482.003906 621.597656 477.816406 620.160156 475.5 C 618.617188 473.179688 614.867188 474.398438 611.449219 471.304688 C 608.023438 468.328125 615.859375 465.136719 618.175781 463.808594 C 623.136719 461.160156 629.207031 455.429688 630.867188 456.53125 C 635.609375 459.726562 629.980469 465.351562 632.515625 466.894531 C 635.71875 468.769531 641.238281 462.484375 643.773438 464.359375 C 646.863281 466.675781 653.484375 471.089844 645.761719 473.074219 C 638.476562 474.949219 646.640625 479.027344 650.066406 478.585938 C 651.941406 478.367188 659.992188 472.523438 663.636719 475.609375 C 666.171875 477.816406 660.4375 483.769531 666.171875 485.3125 C 668.488281 485.863281 671.582031 486.964844 676.875 487.40625 C 682.167969 487.738281 681.402344 492.699219 683.386719 492.699219 C 685.371094 492.699219 692.875 491.933594 698.941406 494.25 C 705.011719 496.558594 714.5 505.605469 717.589844 509.023438 C 722.335938 514.320312 728.070312 507.808594 729.945312 505.164062 C 731.824219 502.519531 728.953125 497.226562 727.078125 497.667969 C 724.980469 498.101562 720.234375 500.972656 717.035156 498.769531 Z M 549.109375 358.046875 C 546.015625 361.800781 549.109375 370.945312 551.75 370.179688 C 556.167969 368.855469 560.472656 366.210938 561.570312 365.101562 C 562.679688 364 567.199219 359.589844 575.144531 360.691406 C 583.089844 361.800781 595.007812 368.636719 596.992188 369.847656 C 598.871094 370.945312 604.054688 374.589844 603.722656 380.433594 C 603.390625 386.277344 597.328125 386.496094 592.800781 389.253906 C 589.382812 391.347656 586.730469 393.773438 582.539062 393.449219 C 578.34375 393.117188 570.734375 389.253906 566.539062 390.796875 C 562.347656 392.347656 558.59375 396.09375 562.347656 399.183594 C 566.097656 402.269531 571.617188 400.726562 575.808594 400.394531 C 580.003906 400.0625 578.679688 409.441406 573.269531 410.097656 C 567.199219 410.875 565.546875 419.363281 569.742188 418.8125 C 577.6875 417.710938 578.894531 423.113281 576.136719 425.433594 C 573.492188 427.742188 567.089844 428.957031 565.65625 430.5 C 564.113281 432.042969 568.523438 436.128906 572.277344 436.128906 C 576.027344 436.128906 582.871094 431.9375 584.523438 431.050781 C 589.382812 428.410156 593.460938 429.402344 597.761719 433.035156 C 601.40625 436.128906 609.574219 426.972656 618.617188 425.433594 C 627.773438 423.882812 634.949219 421.128906 637.59375 421.460938 C 641.679688 422.011719 641.789062 430.167969 643.996094 430.609375 C 646.3125 430.941406 656.132812 430.835938 661.871094 431.601562 C 667.605469 432.378906 676.542969 437.671875 681.175781 436.011719 C 687.90625 433.703125 682.0625 427.859375 681.285156 425.539062 C 680.519531 423.222656 680.519531 420.578125 679.410156 417.929688 C 678.308594 415.285156 674.117188 412.191406 673.675781 408.449219 C 673.339844 404.695312 677.09375 393.226562 667.28125 390.246094 C 657.460938 387.164062 652.714844 387.714844 652.273438 385.394531 C 651.941406 383.078125 652.824219 377.675781 650.507812 377.234375 C 648.1875 376.90625 622.703125 375.140625 619.609375 374.148438 C 613.433594 372.273438 603.722656 357.164062 593.460938 354.40625 C 583.203125 351.761719 575.703125 348.453125 567.199219 353.304688 C 558.59375 358.046875 553.632812 358.488281 549.109375 358.046875 Z M 452.5625 380.875 C 454.660156 378.449219 448.59375 376.023438 443.40625 380.875 C 437.996094 385.945312 442.082031 395.652344 446.492188 397.417969 C 451.019531 399.292969 458.628906 401.828125 466.574219 399.070312 C 472.3125 397.085938 476.730469 394.109375 476.730469 386.9375 C 476.730469 383.851562 472.3125 381.757812 468.558594 380.542969 C 464.699219 379.332031 464.039062 382.085938 464.808594 383.636719 C 465.582031 385.179688 469.226562 387.269531 465.140625 391.789062 C 461.171875 396.316406 453.667969 394.550781 451.128906 391.789062 C 447.484375 388.046875 451.460938 382.203125 452.5625 380.875 Z M 321.042969 381.316406 C 315.75 386.613281 317.507812 392.347656 321.703125 395.765625 C 325.011719 398.519531 338.699219 400.285156 345.535156 397.75 C 350.945312 395.765625 355.246094 388.488281 354.914062 384.292969 C 354.699219 381.316406 352.269531 378.558594 348.519531 377.125 C 344.769531 375.582031 343.992188 380.101562 345.425781 383.195312 C 346.96875 386.171875 348.519531 393.117188 338.582031 393.773438 C 328.65625 394.550781 329.203125 386.722656 330.640625 382.417969 C 332.847656 375.582031 329.097656 374.808594 321.042969 381.316406 Z M 414.386719 505.496094 C 409.203125 500.863281 411.738281 484.652344 404.902344 484.210938 C 401.808594 483.988281 397.28125 487.296875 395.078125 488.730469 C 392.761719 490.273438 390.554688 487.957031 383.710938 488.730469 C 376.875 489.503906 380.625 496.226562 382.609375 501.304688 C 385.703125 509.242188 393.644531 505.496094 395.847656 506.265625 C 398.164062 507.039062 398.5 509.683594 401.589844 509.683594 C 404.566406 509.683594 406.886719 508.140625 410.746094 512.777344 C 415.714844 518.839844 422 512.335938 414.386719 505.496094 Z M 286.730469 354.296875 C 278.785156 360.808594 274.925781 363.675781 276.242188 370.394531 C 277.792969 378.007812 289.15625 380.324219 292.90625 380.324219 C 296.65625 380.324219 301.625 371.945312 303.945312 367.09375 C 305.929688 362.675781 309.011719 357.054688 306.371094 354.40625 C 303.167969 350.878906 293.566406 347.460938 286.730469 354.296875 Z M 321.375 404.253906 C 316.300781 403.59375 314.757812 402.820312 309.457031 400.503906 C 304.160156 398.191406 302.726562 405.136719 305.042969 406.679688 C 307.363281 408.222656 314.53125 410.097656 325.453125 411.089844 C 331.964844 411.757812 341.785156 411.316406 344.769531 410.757812 C 347.746094 410.207031 353.261719 408.773438 353.703125 415.175781 C 354.148438 422.78125 345.867188 419.695312 342.777344 419.804688 C 338.808594 419.804688 328.4375 419.253906 322.367188 418.59375 C 316.300781 417.820312 301.292969 414.511719 295.882812 410.765625 C 292.246094 408.222656 289.15625 403.488281 283.753906 401.9375 C 278.453125 400.394531 274.039062 410.207031 278.125 412.085938 C 280.660156 413.191406 285.628906 416.167969 281.210938 420.578125 C 275.03125 426.75 279.226562 436.019531 281.542969 438.222656 C 283.859375 440.539062 290.8125 450.578125 293.132812 452.78125 C 295.441406 455.097656 301.183594 453.878906 303.5 455.3125 C 304.710938 456.089844 311.882812 461.160156 314.863281 465.136719 C 317.183594 468.21875 321.703125 463.585938 325.453125 460.609375 C 329.203125 457.523438 333.070312 463.699219 331.523438 466.675781 C 329.980469 469.761719 329.203125 469.761719 326.226562 476.601562 C 323.25 483.4375 316.300781 482.667969 311.773438 482.667969 C 307.253906 482.667969 308.019531 487.1875 308.019531 487.1875 C 308.019531 487.1875 311.003906 491.707031 311.003906 494.023438 C 311.003906 496.34375 305.703125 498.542969 300.410156 498.542969 C 295.117188 498.542969 289.8125 497 285.953125 496.234375 C 282.203125 495.460938 283.308594 500.753906 286.730469 503.839844 C 289.8125 506.597656 293.566406 514.09375 300.410156 515.96875 C 303.058594 516.746094 309.011719 515.753906 311.003906 514.425781 C 315.308594 511.667969 322.367188 508.140625 322.367188 503.839844 C 322.367188 499.535156 319.382812 495.675781 325.894531 491.707031 C 330.972656 488.621094 334.832031 494.800781 337.925781 497 C 341.011719 499.320312 346.636719 496.667969 351.273438 492.816406 C 355.796875 489.0625 355.023438 478.476562 353.921875 473.40625 C 352.820312 468.113281 347.855469 469.320312 343.660156 465.792969 C 338.367188 461.273438 346.3125 455.207031 346.3125 455.207031 C 346.3125 455.207031 360.324219 447.269531 359.550781 439.988281 C 358.773438 432.484375 360.542969 424.105469 362.640625 419.914062 C 363.960938 417.160156 357.78125 416.71875 361.976562 409.882812 C 365.511719 404.039062 374.773438 398.300781 375.546875 392.234375 C 376.324219 386.171875 371.464844 383.519531 366.945312 381.976562 C 362.417969 380.433594 361.535156 387.054688 360.542969 392.898438 C 359.441406 399.070312 353.371094 402.378906 347.636719 403.8125 C 343.660156 404.921875 326.5625 404.921875 321.375 404.253906 Z M 371.023438 599.894531 C 367.9375 602.871094 364.519531 603.972656 361.316406 605.523438 C 357.566406 607.390625 360.210938 618.863281 365.394531 618.203125 C 368.378906 617.871094 374.003906 621.289062 376.648438 625.367188 C 379.082031 629.34375 383.382812 634.414062 385.367188 635.515625 C 389.5625 638.054688 393.53125 641.691406 401.699219 644.226562 C 410.636719 646.984375 429.726562 646.984375 436.121094 646.652344 C 442.632812 646.328125 437.554688 640.589844 433.804688 640.148438 C 430.054688 639.816406 409.203125 636.507812 404.234375 634.195312 C 399.273438 631.878906 395.40625 626.800781 394.195312 624.15625 C 393.089844 621.507812 387.578125 620.847656 385.257812 617.097656 C 382.941406 613.238281 380.957031 605.632812 380.183594 601.4375 C 379.40625 597.246094 373.453125 597.578125 371.027344 599.894531 Z M 544.914062 677.3125 C 541.9375 679.960938 539.394531 679.738281 534.875 681.945312 C 530.351562 684.148438 525.5 688.558594 517.996094 689.667969 C 514.351562 690.214844 508.285156 691.207031 506.40625 690.109375 C 504.53125 689 503.648438 677.867188 502.875 673.675781 C 502.105469 669.480469 496.480469 663.859375 494.929688 662.425781 C 493.386719 660.882812 493.828125 660.21875 491.511719 656.359375 C 489.300781 652.613281 485.441406 649.964844 483.566406 650.738281 C 481.691406 651.503906 480.148438 652.613281 477.613281 652.941406 C 474.960938 653.273438 470.4375 649.964844 468.234375 646.542969 C 466.023438 643.125 458.082031 642.023438 454.660156 642.023438 C 451.238281 642.023438 454.988281 648.421875 457.304688 650.296875 C 459.625 652.171875 462.605469 657.464844 463.707031 659.335938 C 464.808594 661.210938 470.101562 661.984375 473.855469 662.316406 C 477.613281 662.644531 481.355469 664.960938 481.355469 669.480469 C 481.355469 674.007812 474.960938 674.007812 473.085938 675.875 C 471.210938 677.753906 468.117188 678.304688 464.699219 677.203125 C 461.28125 676.101562 462.164062 670.148438 458.523438 666.0625 C 456.421875 663.746094 445.726562 657.902344 437.445312 655.699219 C 429.167969 653.488281 413.722656 656.800781 409.203125 659.886719 C 404.675781 662.867188 393.753906 667.386719 390.769531 667.386719 C 387.792969 667.386719 384.925781 666.0625 380.074219 666.730469 C 375.214844 667.496094 369.703125 678.636719 367.828125 682.054688 C 365.953125 685.472656 362.085938 691.867188 367.269531 693.742188 C 372.570312 695.621094 380.957031 692.199219 385.476562 690.992188 C 390.003906 689.882812 399.382812 684.921875 403.902344 684.261719 C 408.425781 683.488281 414.054688 680.84375 419.683594 679.410156 C 425.96875 677.753906 427.734375 675.441406 430.71875 672.792969 C 433.695312 670.148438 438.105469 672.574219 441.089844 674.007812 C 444.066406 675.550781 447.710938 676.542969 452.230469 677.3125 C 456.753906 678.085938 456.421875 681.0625 455.105469 682.277344 C 453.335938 684.039062 449.695312 685.363281 445.167969 686.140625 C 440.648438 686.90625 435.789062 690.433594 432.921875 691.207031 C 428.953125 692.308594 420.125 696.394531 418.140625 697.269531 C 413.945312 699.148438 400.816406 706.425781 399.382812 707.53125 C 397.839844 708.632812 392.871094 708.523438 389.894531 710.066406 C 386.910156 711.609375 384.925781 715.804688 389.453125 719.222656 C 393.972656 722.640625 402.25 721.648438 409.753906 720.875 C 417.257812 720.097656 433.363281 717.671875 445.726562 718.78125 C 458.082031 719.882812 472.753906 719.332031 478.488281 716.355469 C 484.117188 713.378906 488.976562 713.042969 494.269531 713.488281 C 499.5625 713.8125 503.648438 714.921875 505.855469 713.042969 C 508.058594 711.167969 514.792969 707.089844 520.746094 705.214844 C 526.816406 703.339844 536.3125 700.253906 540.0625 698.378906 C 543.8125 696.503906 546.347656 691.207031 549.214844 688.339844 C 552.308594 685.253906 556.386719 685.804688 560.914062 683.707031 C 564.003906 682.273438 564.882812 682.164062 564.445312 680.289062 C 564.113281 678.417969 561.464844 675.550781 560.363281 674 C 559.253906 672.457031 560.363281 664.410156 560.363281 661.761719 C 560.363281 659.117188 549.441406 657.683594 550.210938 663.304688 C 550.875 667.164062 548 674.667969 544.914062 677.3125 Z M 552.75 513.652344 C 548.332031 521.046875 551.644531 520.824219 557.496094 525.457031 C 563.449219 530.195312 561.570312 537.363281 561.90625 542.550781 C 562.238281 547.726562 569.074219 549.605469 572.058594 551.8125 C 575.035156 554.015625 577.460938 558.542969 581.214844 560.417969 C 584.964844 562.285156 588.941406 561.851562 593.019531 566.261719 C 597.101562 570.671875 595.558594 576.40625 598.425781 581.8125 C 602.179688 588.757812 608.140625 586.664062 609.574219 591.84375 C 610.449219 594.933594 608.140625 599.238281 607.699219 602.214844 C 607.363281 605.191406 610.339844 618.089844 610.339844 627.792969 C 610.339844 637.5 602.839844 645.992188 602.070312 651.613281 C 601.296875 657.242188 603.503906 656.46875 606.148438 661.652344 C 608.796875 666.835938 594.453125 668.046875 593.019531 669.816406 C 591.582031 671.691406 583.640625 680.070312 581.761719 681.0625 C 578.234375 683.046875 568.523438 695.070312 567.972656 700.140625 C 566.980469 710.285156 524.171875 711.828125 525.714844 735.765625 C 526.15625 743.152344 515.011719 740.835938 500.230469 747.453125 C 490.183594 751.972656 469.335938 742.378906 463.042969 742.378906 C 456.753906 742.378906 409.09375 746.460938 402.910156 745.910156 C 398.058594 745.46875 390.222656 737.964844 387.578125 736.421875 C 381.617188 733.222656 377.53125 730.246094 367.828125 728.371094 C 358.117188 726.5 353.148438 725.066406 352.488281 722.75 C 351.714844 720.539062 354.699219 716.796875 355.464844 713.820312 C 356.238281 710.835938 353.921875 706.757812 352.15625 704.882812 C 350.28125 703.007812 349.289062 693.527344 349.289062 690.109375 C 349.289062 684.703125 354.03125 675.875 356.898438 669.816406 C 359.765625 663.746094 363.300781 663.3125 366.167969 660.660156 C 369.144531 658.015625 378.75 655.699219 377.757812 651.503906 C 376.980469 648.527344 373.671875 644.34375 369.585938 641.691406 C 365.175781 638.824219 357.449219 642.683594 350.722656 645.21875 C 343.992188 647.871094 333.839844 657.132812 332.40625 660.550781 C 330.972656 663.859375 328.105469 672.683594 325.453125 678.636719 C 322.808594 684.589844 325.453125 693.636719 329.203125 704.441406 C 330.3125 707.75 331.304688 713.703125 332.40625 718.113281 C 333.507812 722.53125 338.03125 725.507812 340.902344 728.484375 C 343.878906 731.460938 343.769531 735.65625 344.210938 738.191406 C 344.542969 740.835938 341.453125 754.839844 344.761719 759.695312 C 348.070312 764.546875 361.316406 764.769531 359.765625 761.785156 C 358.558594 759.359375 361.867188 742.050781 370.03125 742.050781 C 386.695312 742.050781 387.136719 758.703125 394.195312 761.238281 C 395.738281 761.785156 407.769531 761.019531 429.503906 759.800781 C 459.40625 758.257812 492.394531 752.082031 493.71875 751.640625 C 495.921875 750.871094 523.839844 739.183594 525.273438 738.40625 C 526.707031 737.640625 544.582031 730.578125 558.371094 724.625 C 572.167969 718.671875 592.46875 708.523438 590.699219 705.65625 C 584.632812 696.171875 590.148438 686.464844 593.125 683.820312 C 597.210938 680.292969 614.09375 670.472656 616.300781 668.820312 C 623.472656 663.195312 628.65625 656.472656 629.980469 652.941406 C 631.308594 649.414062 631.523438 643.460938 632.851562 640.480469 C 634.066406 637.832031 645.097656 637.941406 643.996094 643.125 C 643.003906 647.871094 650.066406 651.289062 653.707031 653.824219 C 656.574219 655.917969 663.304688 646.101562 664.40625 644.667969 C 669.039062 638.605469 663.304688 629.121094 651.058594 630.996094 C 641.894531 632.429688 646.421875 621.179688 646.089844 618.644531 C 645.761719 615.996094 638.144531 615.003906 637.375 609.492188 C 637.152344 607.617188 634.617188 602.105469 632.410156 599.5625 C 630.199219 596.917969 624.90625 594.710938 624.90625 591.734375 C 624.90625 589.089844 628.765625 588.421875 629.433594 584.238281 C 630.199219 580.152344 628.105469 574.199219 627.332031 570.121094 C 626.5625 566.039062 624.128906 549.609375 628.214844 547.734375 C 632.300781 545.859375 633.402344 551.039062 634.835938 555.230469 C 636.269531 559.316406 642.335938 560.308594 643.113281 557.65625 C 643.886719 555.015625 643.773438 547.511719 642.230469 541.558594 C 640.792969 535.605469 629.207031 528.875 625.898438 527.660156 C 622.589844 526.558594 621.820312 525.785156 618.503906 523.582031 C 615.195312 521.371094 592.800781 522.148438 584.523438 520.378906 C 574.261719 518.179688 565.988281 513.984375 561.90625 511.785156 C 557.710938 510.347656 557.929688 510.015625 552.742188 513.660156 Z M 303.277344 694.183594 C 295.441406 690.765625 284.1875 697.710938 282.644531 701.023438 C 280.109375 706.648438 286.730469 712.710938 294.339844 715.246094 C 300.300781 717.230469 309.128906 717.789062 312.214844 712.160156 C 315.523438 705.984375 308.6875 696.503906 303.277344 694.183594 Z M 293.566406 670.699219 C 296.550781 669.589844 303.277344 667.605469 308.246094 666.394531 C 310.5625 665.84375 314.53125 666.394531 315.964844 664.519531 C 317.398438 662.644531 322.367188 655.257812 323.800781 651.503906 C 325.34375 647.753906 328.320312 645.550781 332.738281 643.34375 C 337.148438 641.140625 337.699219 635.296875 339.46875 632.539062 C 341.453125 629.453125 349.621094 631.328125 349.070312 624.816406 C 348.511719 618.3125 337.484375 619.855469 332.296875 620.1875 C 327.113281 620.515625 320.601562 623.273438 313.429688 626.25 C 307.578125 628.785156 302.726562 630.769531 298.644531 633.421875 C 294.566406 636.066406 290.039062 639.484375 288.9375 642.132812 C 287.828125 644.777344 287.386719 648.195312 284.410156 650.40625 C 281.433594 652.605469 275.808594 653.714844 272.824219 650.40625 C 269.847656 647.09375 270.066406 642.902344 266.980469 641.46875 C 263.996094 640.035156 260.578125 639.042969 259.367188 637.058594 C 257.710938 634.1875 257.816406 631.988281 255.617188 631.105469 C 253.183594 630.113281 250.429688 630.996094 249.324219 627.351562 C 247.996094 623.164062 248.664062 619.746094 245.019531 616.214844 C 240.828125 612.027344 239.835938 602.980469 236.859375 601.4375 C 233.875 599.894531 228.25 598.792969 228.25 595.8125 C 228.25 592.394531 230.347656 588.316406 234.097656 587.539062 C 238.175781 586.773438 237.410156 579.386719 238.617188 576.402344 C 239.726562 573.425781 248.988281 566.371094 255.726562 564.496094 C 262.453125 562.617188 265.761719 560.742188 267.636719 561.84375 C 269.515625 562.953125 267.304688 568.90625 269.515625 570.007812 C 271.722656 571.105469 288.820312 575.191406 293.347656 573.316406 C 297.875 571.441406 307.136719 564.386719 312.65625 564.710938 C 318.285156 565.046875 320.820312 567.363281 318.949219 571 C 317.066406 574.75 308.570312 578.058594 306.253906 581.8125 C 304.050781 585.554688 299.191406 589.964844 299.191406 589.964844 C 299.191406 589.964844 295.117188 589.199219 290.589844 588.867188 C 286.179688 588.53125 274.257812 589.640625 270.839844 598.570312 C 267.53125 607.5 268.964844 613.460938 269.738281 616.105469 C 270.507812 618.753906 272.382812 626.140625 273.046875 628.019531 C 273.816406 629.894531 279 629.894531 281.210938 628.34375 C 283.417969 626.800781 286.503906 621.066406 285.738281 618.089844 C 284.960938 615.113281 281.652344 602.761719 286.730469 600.222656 C 290.371094 598.351562 296.765625 600.003906 296.433594 602.320312 C 296.109375 604.523438 296.992188 608.71875 299.96875 607.941406 C 302.945312 607.175781 308.6875 605.40625 311.664062 605.40625 C 314.640625 605.40625 322.253906 608.273438 324.902344 607.941406 C 337.816406 606.398438 338.917969 601.769531 340.242188 598.238281 C 343.769531 588.53125 351.605469 579.820312 360.101562 582.910156 C 368.269531 585.890625 372.019531 580.261719 375.773438 578.828125 C 379.523438 577.285156 381.726562 578.5 385.035156 581.035156 C 388.34375 583.679688 392.871094 596.253906 396.957031 603.3125 C 401.035156 610.367188 406.660156 616.328125 409.96875 618.199219 C 413.28125 620.074219 419.574219 620.625 420.675781 622.058594 C 421.78125 623.609375 428.402344 628.675781 432.921875 629.777344 C 437.339844 630.886719 452.230469 627.242188 454.4375 627.242188 C 456.644531 627.242188 463.042969 630.996094 466.46875 634.746094 C 469.777344 638.492188 470.542969 638.714844 473.527344 641.359375 C 476.503906 644.007812 480.921875 645.878906 480.589844 641.800781 C 480.257812 637.722656 478.820312 626.46875 474.410156 622.390625 C 469.992188 618.3125 467.460938 614.011719 464.148438 614.011719 C 460.839844 614.011719 453.003906 611.035156 451.238281 610.484375 C 444.726562 608.492188 439.097656 605.074219 436.789062 602.980469 C 433.472656 600.113281 435.570312 592.835938 435.789062 589.964844 C 436.121094 585.445312 434.796875 578.058594 432.59375 572.765625 C 427.519531 560.527344 427.519531 556 426.085938 550.488281 C 424.316406 543.867188 425.535156 534.605469 421.449219 533.0625 C 417.363281 531.628906 407.652344 529.535156 401.035156 530.527344 C 393.644531 531.628906 390.445312 532.84375 386.800781 531.078125 C 383.050781 529.203125 379.957031 525.234375 372.570312 526.007812 C 365.175781 526.777344 363.960938 525.457031 361.316406 524.023438 C 358.667969 522.589844 354.804688 522.148438 351.164062 524.023438 C 347.410156 525.890625 344.761719 529.867188 348.070312 530.636719 C 351.386719 531.410156 355.464844 530.96875 357.339844 533.285156 C 359.214844 535.488281 360.324219 538.90625 362.96875 541.441406 C 365.617188 544.09375 369.261719 546.628906 368.152344 548.171875 C 367.050781 549.605469 362.199219 552.253906 361.09375 551.480469 C 359.992188 550.707031 353.8125 546.628906 349.070312 544.09375 C 344.210938 541.441406 339.46875 537.253906 334.949219 538.691406 C 331.964844 539.683594 331.414062 547.070312 328.878906 548.945312 C 326.226562 550.820312 322.144531 552.472656 319.941406 549.9375 C 317.734375 547.402344 315.75 538.355469 313.097656 537.253906 C 310.449219 536.148438 303.71875 534.054688 296.324219 537.804688 C 288.9375 541.558594 284.304688 542.214844 280.992188 542.875 C 276.359375 543.867188 270.839844 544.417969 265.652344 545.96875 C 261.570312 547.179688 255.941406 551.589844 245.796875 551.589844 C 238.734375 551.589844 225.046875 550.707031 223.835938 555.121094 C 222.730469 559.535156 220.085938 562.285156 221.628906 565.59375 C 223.171875 568.90625 217.878906 575.632812 212.691406 571.222656 C 207.507812 566.8125 209.714844 555.558594 210.816406 551.921875 C 211.917969 548.171875 218.871094 521.371094 221.851562 517.953125 C 224.828125 514.644531 232 500.527344 237.625 497.109375 C 241.601562 494.683594 247.339844 495.015625 248.773438 498.769531 C 250.207031 502.511719 250.648438 513.320312 249.105469 515.085938 C 247.671875 516.960938 244.6875 515.417969 240.9375 517.738281 C 237.183594 519.9375 231.117188 528.433594 231.449219 531.738281 C 231.78125 535.046875 230.457031 537.03125 236.085938 536.703125 C 241.710938 536.371094 243.253906 534.71875 244.6875 535.820312 C 246.238281 536.921875 251.089844 538.582031 255.941406 536.371094 C 260.800781 534.164062 269.179688 534.164062 268.523438 521.15625 C 267.746094 508.140625 266.980469 502.511719 269.296875 497.335938 C 271.5 492.148438 275.25 486.523438 269.625 480.570312 C 263.996094 474.617188 260.027344 468.546875 252.523438 467.777344 C 238.511719 466.34375 243.253906 473.730469 240.609375 475.609375 C 237.960938 477.484375 231.117188 479.46875 224.828125 478.359375 C 218.542969 477.257812 211.589844 477.257812 208.5 481.894531 C 204.863281 487.515625 202.210938 489.832031 201.4375 494.683594 C 200.667969 499.535156 196.917969 507.367188 193.609375 511.007812 C 190.292969 514.753906 189.855469 517.511719 188.089844 523.140625 C 186.429688 528.433594 184.886719 537.472656 184.554688 540.449219 C 184.230469 543.433594 191.398438 566.8125 194.042969 573.976562 C 196.695312 581.035156 200.335938 596.253906 203.3125 598.902344 C 206.289062 601.546875 209.273438 601.105469 212.582031 599.671875 C 215.894531 598.238281 220.417969 597.46875 222.292969 601.222656 C 224.171875 604.964844 222.738281 617.980469 223.285156 621.066406 C 223.945312 624.707031 227.480469 630.21875 229.355469 632.097656 C 231.230469 633.972656 230.125 636.179688 231.558594 639.15625 C 233.105469 642.132812 235.308594 643.234375 238.953125 644.777344 C 242.703125 646.320312 246.347656 646.984375 247.890625 650.40625 C 249.433594 653.714844 249.765625 656.691406 254.183594 659.667969 C 258.59375 662.644531 263.886719 666.394531 263.886719 670.148438 C 263.886719 673.890625 259.035156 676.101562 253.074219 677.976562 C 247.113281 679.84375 237.734375 680.289062 235.976562 683.597656 C 234.097656 686.90625 232 689.773438 236.859375 691.316406 C 241.710938 692.75 255.28125 692.644531 264.21875 689.667969 C 273.15625 686.6875 283.085938 683.15625 284.746094 680.621094 C 286.394531 677.859375 290.589844 671.90625 293.566406 670.699219 Z M 196.359375 682.828125 C 196.585938 675 186.105469 670.363281 181.246094 667.828125 C 164.472656 659.117188 172.308594 652.054688 165.90625 646.984375 C 160.171875 642.464844 155.976562 662.3125 157.527344 664.960938 C 159.070312 667.605469 159.070312 675.660156 163.261719 677.859375 C 167.457031 680.179688 173.851562 686.90625 176.835938 689.441406 C 179.152344 691.316406 192.28125 699.039062 193.824219 701.683594 C 193.824219 701.683594 196.144531 690.660156 196.359375 682.828125 Z M 217.433594 711.945312 C 219.863281 713.378906 239.175781 724.515625 244.46875 727.933594 C 249.765625 731.355469 288.164062 752.523438 300.742188 754.730469 C 313.324219 757.042969 305.488281 739.507812 298.425781 734.546875 C 290.148438 728.703125 280.550781 726.71875 266.871094 720.324219 C 253.191406 713.820312 238.070312 707.859375 234.648438 706.648438 C 223.394531 702.566406 217.433594 711.945312 217.433594 711.945312 Z M 130.050781 611.144531 C 128.949219 619.523438 145.390625 615.777344 151.457031 615.777344 C 157.527344 615.777344 162.488281 621.949219 169.660156 625.699219 C 176.835938 629.453125 179.921875 632.871094 183.347656 637.5 C 186.765625 642.023438 208.941406 656.25 213.023438 658.015625 C 223.285156 662.535156 221.738281 656.910156 216.109375 650.070312 C 209.273438 641.800781 192.609375 617.097656 187.648438 613.238281 C 184.445312 610.808594 179.8125 594.382812 171.867188 592.835938 C 163.921875 591.292969 167.789062 594.820312 156.09375 590.851562 C 144.398438 586.773438 138.4375 586.988281 138.21875 591.402344 C 138.105469 596.144531 142.519531 599.238281 138.988281 600.777344 C 134.578125 602.539062 131.925781 604.304688 130.050781 611.144531 Z M 120.78125 596.917969 C 127.625 589.75 130.273438 576.074219 136.34375 566.585938 C 142.40625 557.105469 145.5 554.015625 149.691406 551.8125 C 153.882812 549.496094 154.984375 546.851562 153.109375 542.660156 C 151.675781 539.457031 153.109375 538.464844 159.953125 534.71875 C 166.789062 530.96875 170.984375 529.644531 173.300781 522.039062 C 174.851562 516.960938 185.773438 497.777344 181.46875 496.007812 C 177.050781 494.242188 172.535156 491.15625 173.300781 487.296875 C 174.074219 483.546875 180.472656 483.328125 183.894531 481.453125 C 187.316406 479.578125 186.214844 477.257812 182.789062 475.058594 C 179.371094 472.738281 170.214844 472.40625 165.691406 473.179688 C 161.164062 473.957031 158.847656 479.683594 154.652344 483.4375 C 150.464844 487.1875 147.265625 484.539062 142.078125 491.375 C 137.554688 497.445312 135.234375 513.769531 132.917969 519.496094 C 130.601562 525.234375 129.5 523.691406 127.183594 527.441406 C 124.863281 531.1875 131.707031 530.527344 133.691406 534.605469 C 135.570312 538.796875 135.570312 542 131.816406 542.214844 C 119.238281 542.992188 126.847656 548.171875 126.082031 554.238281 C 125.414062 559.75 113.5 583.128906 111.625 588.648438 C 110.191406 593.277344 115.488281 598.019531 120.78125 596.917969 Z M 91.875 552.914062 C 95.402344 554.789062 91.542969 564.828125 95.84375 568.90625 C 99.046875 571.882812 104.457031 564.277344 105.558594 557.214844 C 106.882812 548.394531 102.355469 534.171875 106.765625 527.660156 C 111.183594 521.15625 114.9375 517.1875 115.269531 510.347656 C 115.710938 503.507812 120.5625 498.21875 123.765625 494.023438 C 126.957031 489.832031 135.460938 482.886719 137.113281 478.691406 C 138.65625 474.507812 135.785156 471.089844 130.160156 472.632812 C 124.640625 474.171875 113.609375 483.328125 107.324219 488.070312 C 104.125 490.496094 89.007812 508.582031 87.460938 511.34375 C 83.707031 517.953125 91.761719 520.164062 87.015625 528.542969 C 85.257812 531.628906 85.917969 536.039062 84.257812 538.691406 C 80.070312 545.859375 84.699219 551.8125 91.875 552.914062 Z M 162.378906 463.695312 C 165.246094 461.824219 166.238281 460.941406 170.65625 461.601562 C 175.066406 462.375 197.136719 467.886719 212.03125 465.792969 C 226.929688 463.585938 243.476562 456.089844 246.011719 451.34375 C 248.554688 446.601562 253.296875 441.972656 255.5 439.4375 C 257.710938 436.898438 256.824219 428.625 253.957031 427.523438 C 251.089844 426.425781 244.136719 423.113281 240.386719 426.75 C 236.742188 430.394531 233.214844 430.285156 229.242188 429.949219 C 225.269531 429.617188 216.226562 430.394531 206.621094 432.820312 C 199.011719 434.695312 179.261719 442.300781 172.640625 446.050781 C 166.132812 449.695312 159.953125 456.75 157.746094 458.847656 C 155.652344 460.941406 159.402344 465.570312 162.378906 463.699219 Z M 175.175781 121.386719 L 152.449219 140.570312 C 152.449219 140.570312 167.347656 135.277344 169.992188 141.453125 C 173.96875 150.5 180.804688 155.019531 188.308594 151.492188 C 194.816406 148.398438 200.554688 150.277344 203.980469 157.113281 C 207.839844 164.941406 211.367188 168.585938 210.597656 176.082031 C 209.050781 189.753906 197.359375 231.117188 205.296875 260.339844 C 209.273438 275.113281 207.613281 281.625 223.945312 301.695312 C 232.558594 312.28125 250.207031 326.398438 252.414062 329.375 C 254.734375 332.460938 255.5 337.753906 258.484375 336.210938 C 261.570312 334.667969 258.152344 321.761719 252.082031 314.925781 C 246.011719 308.089844 217.550781 289.121094 214.457031 262.542969 C 211.367188 235.96875 215.234375 219.3125 218.210938 212.472656 C 221.300781 205.636719 221.960938 192.738281 221.960938 188.988281 C 221.960938 188.988281 221.960938 180.492188 227.039062 181.484375 C 231.007812 182.257812 232.441406 196.597656 232.441406 201.886719 C 232.441406 207.179688 233.433594 217.109375 233.433594 217.109375 C 233.433594 217.109375 237.960938 227.699219 237.960938 230.78125 C 237.960938 233.761719 233.433594 244.457031 234.867188 248.976562 C 236.417969 253.503906 242.484375 257.363281 244.804688 261.109375 C 247.113281 264.859375 243.253906 271.035156 246.347656 274.789062 C 249.433594 278.53125 258.484375 292.207031 263.777344 293.757812 C 269.074219 295.300781 285.402344 301.035156 288.496094 297.941406 C 291.582031 294.964844 298.316406 286.253906 286.945312 283.167969 C 275.582031 280.074219 257.710938 273.238281 253.183594 257.246094 C 248.664062 241.261719 249.875 208.289062 229.464844 166.492188 C 208.941406 124.695312 195.59375 129.214844 188.414062 126.457031 Z M 438.105469 152.042969 C 423.984375 191.738281 422.332031 192.957031 423.214844 205.417969 C 424.097656 217.878906 431.929688 218.652344 436.898438 211.265625 C 441.859375 203.761719 444.175781 197.808594 450.578125 197.148438 C 454.988281 196.707031 455.761719 203.320312 454.988281 211.589844 C 454.21875 219.863281 460.507812 214.132812 464.699219 208.289062 C 468.894531 202.4375 470.769531 184.027344 471.652344 174.097656 C 472.535156 164.175781 474.296875 156.453125 474.851562 148.398438 C 475.402344 140.238281 476.945312 130.097656 472.863281 130.097656 C 468.667969 130.097656 465.25 131.640625 465.25 128.105469 C 465.25 122.59375 479.371094 110.355469 484.117188 106.710938 C 490.742188 101.644531 485.664062 91.277344 477.496094 96.015625 C 467.566406 101.535156 452.230469 112.339844 438.105469 152.042969 Z M 199.785156 99.324219 C 199.785156 99.324219 213.132812 113.882812 215.558594 113.113281 C 218.101562 112.230469 221.296875 103.078125 224.613281 103.734375 C 230.898438 104.953125 233.105469 116.089844 233.992188 120.277344 C 234.757812 124.472656 240.609375 128.546875 242.929688 131.523438 C 246.679688 136.492188 255.390625 169.136719 257.050781 177.515625 C 258.703125 185.785156 267.746094 248.867188 271.941406 254.496094 C 279.445312 264.417969 287.28125 264.308594 282.316406 248.648438 C 276.132812 229.242188 274.039062 187.886719 277.351562 173.761719 C 280.660156 159.648438 275.03125 133.402344 271.722656 128.441406 C 268.414062 123.480469 270.730469 115.316406 273.265625 113.664062 C 275.808594 112.007812 285.402344 118.292969 287.0625 124.914062 C 288.714844 131.53125 290.148438 169.792969 291.804688 175.863281 C 293.457031 182.035156 297.757812 184.792969 299.308594 189.09375 C 301.183594 194.5 299.308594 199.902344 301.734375 204.863281 C 304.269531 209.832031 314.316406 226.589844 318.617188 231.441406 C 323.691406 237.070312 329.320312 239.054688 330.753906 234.753906 C 332.1875 230.007812 314.199219 212.367188 310.003906 190.863281 C 307.363281 177.183594 301.292969 166.484375 301.292969 157.777344 C 299.417969 153.035156 299.636719 149.285156 298.75 146.75 C 297.652344 143.65625 298.867188 122.152344 296.324219 117.191406 C 293.789062 112.230469 276.359375 98.558594 272.824219 100.101562 C 264.113281 103.851562 253.40625 94.253906 249.105469 90.722656 C 246.238281 88.296875 232.882812 81.132812 232.882812 81.132812 C 232.882812 81.132812 259.144531 70.984375 264.996094 68.226562 C 270.289062 65.800781 280.769531 63.265625 280.769531 63.265625 C 280.769531 63.265625 273.488281 74.070312 279.226562 83.667969 C 283.417969 90.835938 286.289062 101.75 291.582031 91.386719 C 299.308594 76.496094 295.441406 52.785156 305.929688 49.148438 C 310.78125 47.492188 331.632812 52.902344 336.597656 56.976562 C 338.808594 58.746094 347.410156 71.425781 352.707031 72.308594 C 360.101562 73.410156 369.480469 74.621094 375.214844 75.289062 C 385.476562 76.496094 393.089844 87.085938 395.523438 93.921875 C 402.140625 112.558594 387.6875 136.160156 387.6875 136.160156 C 387.6875 136.160156 384.59375 143.105469 385.703125 156.011719 C 386.695312 168.585938 385.144531 176.746094 390.996094 176.746094 C 396.839844 176.746094 396.839844 151.933594 400.925781 142.78125 C 405.117188 133.734375 406.109375 125.355469 407.101562 117.851562 C 408.09375 109.695312 406.886719 81.792969 406.109375 77.605469 C 405.226562 73.410156 399.273438 64.148438 388.570312 62.488281 C 377.757812 60.839844 360.433594 54.21875 364.519531 47.605469 C 368.703125 40.988281 395.964844 44.296875 400.148438 45.070312 C 404.34375 45.839844 413.722656 48.265625 415.820312 59.738281 C 417.804688 70.984375 416.707031 97.78125 416.371094 102.527344 C 415.820312 110.136719 423.875 101.09375 426.085938 103.078125 C 430.160156 106.605469 421.117188 122.59375 419.464844 136.710938 C 417.804688 150.828125 411.847656 163.507812 416.8125 164.390625 C 421.78125 165.273438 430.054688 142.003906 438.332031 122.152344 C 446.601562 102.300781 445.285156 104.285156 445.285156 101.75 C 445.285156 99.214844 442.851562 91.277344 447.816406 87.96875 C 452.785156 84.660156 469.226562 83.332031 478.929688 82.339844 C 485.992188 81.574219 490.078125 77.929688 489.085938 74.738281 C 488.199219 71.535156 474.960938 69.882812 471.761719 70.101562 C 466.683594 70.652344 456.203125 73.1875 453.667969 70.652344 C 451.902344 68.890625 455.546875 47.273438 455.546875 47.273438 C 455.546875 47.273438 479.921875 50.359375 489.742188 52.351562 C 495.488281 53.558594 531.785156 67.675781 541.714844 70.984375 C 551.644531 74.292969 572.941406 88.960938 572.941406 88.960938 C 572.941406 88.960938 563.671875 86.867188 558.261719 91.605469 C 549.660156 99.109375 541.054688 99.109375 533 99.109375 C 524.390625 99.109375 508.835938 94.804688 500.554688 113 C 492.285156 131.199219 485.222656 158.878906 483.566406 176.304688 C 481.914062 193.730469 473.746094 210.929688 477.722656 212.257812 C 482.90625 214.015625 489.96875 200.015625 492.945312 188.210938 C 495.042969 179.832031 499.011719 169.6875 501.222656 165.609375 C 503.757812 161.082031 511.925781 153.804688 511.925781 164.5 C 511.925781 175.3125 505.632812 185.125 500.671875 198.359375 C 495.703125 211.589844 495.042969 218.320312 489.742188 222.953125 C 481.03125 230.449219 478.164062 237.84375 484.78125 237.070312 C 489.859375 236.410156 497.472656 237.402344 494.496094 242.03125 C 490.742188 247.542969 484.78125 250.300781 488.09375 253.613281 C 491.402344 256.921875 500.671875 255.378906 501.554688 249.640625 C 502.546875 243.90625 502.105469 232.875 505.414062 229.566406 C 508.726562 226.261719 512.808594 230.675781 511.261719 236.1875 C 508.726562 245.007812 517.878906 240.929688 514.792969 251.183594 C 513.578125 255.152344 507.507812 262.765625 508.285156 265.191406 C 509.058594 267.726562 517.769531 273.019531 498.355469 275.113281 C 492.617188 275.78125 467.125 267.285156 460.179688 263.425781 C 451.019531 258.355469 443.40625 249.75 436.230469 247.109375 C 428.402344 244.238281 412.179688 239.496094 409.753906 238.503906 C 404.902344 236.410156 401.808594 232.109375 401.808594 228.796875 C 401.808594 225.488281 393.539062 216.335938 387.6875 207.296875 C 381.839844 198.140625 373.5625 187.445312 376.097656 167.59375 C 378.53125 147.742188 378.53125 114.65625 371.136719 104.726562 C 363.742188 94.804688 340.902344 79.914062 336.382812 71.644531 C 331.855469 63.375 319.609375 57.421875 312.105469 57.421875 C 306.921875 57.421875 310.453125 90.503906 310.230469 99.765625 C 310.121094 108.371094 313.980469 114.433594 316.742188 115.867188 C 319.5 117.300781 324.019531 125.464844 323.578125 132.632812 C 323.027344 141.347656 315.082031 137.703125 316.957031 149.390625 C 318.175781 157.226562 322.367188 155.238281 325.679688 155.570312 C 328.65625 155.902344 330.089844 168.800781 328.210938 170.460938 C 326.011719 172.445312 323.25 174.210938 324.019531 178.289062 C 324.792969 182.484375 326.453125 194.832031 331.414062 194.832031 C 336.382812 194.832031 338.917969 187.335938 338.917969 183.25 C 338.917969 179.171875 340.574219 136.050781 342.226562 128.664062 C 343.882812 121.160156 338.917969 113.332031 334.722656 107.597656 C 330.53125 101.75 318.835938 94.695312 320.492188 87.308594 C 322.144531 79.804688 324.242188 71.976562 326.5625 73.078125 C 331.195312 75.0625 330.53125 83.890625 332.1875 86.316406 C 333.839844 88.742188 360.210938 107.597656 365.726562 115.097656 C 370.253906 121.277344 370.472656 151.160156 370.253906 156.121094 C 370.144531 161.855469 362.859375 166.050781 362.089844 161.414062 C 360.542969 152.925781 365.285156 140.128906 357.015625 139.578125 C 351.277344 139.136719 349.621094 147.851562 350.394531 161.089844 C 351.273438 174.320312 354.148438 202.441406 357.457031 204.976562 C 360.765625 207.511719 364.960938 208.730469 366.609375 213.691406 C 368.269531 218.652344 370.804688 225.929688 376.980469 227.363281 C 384.042969 229.015625 390.222656 231.117188 385.703125 233.542969 C 378.53125 237.402344 368.269531 241.8125 363.300781 242.253906 C 349.179688 243.464844 338.699219 253.503906 331.746094 258.574219 C 322.585938 265.191406 315.964844 278.972656 311.886719 288.570312 C 311.113281 290.335938 309.570312 300.484375 303.71875 305.886719 C 296.882812 312.28125 287.722656 316.585938 283.308594 318.570312 C 277.902344 320.996094 273.046875 327.832031 281.324219 326.175781 C 289.597656 324.523438 305.703125 315.808594 307.363281 325.296875 C 308.90625 333.894531 293.679688 334.011719 288.273438 334.777344 C 283.085938 335.550781 272.164062 342.28125 277.460938 347.566406 C 281.210938 351.320312 292.140625 340.957031 299.859375 341.398438 C 308.136719 341.839844 318.507812 346.800781 325.894531 347.566406 C 333.398438 348.34375 348.402344 349.445312 354.472656 347.566406 C 359.882812 345.917969 381.839844 331.027344 392.980469 331.800781 C 401.257812 332.460938 410.304688 339.414062 417.804688 342.941406 C 427.292969 347.460938 437.445312 353.855469 458.964844 353.527344 C 480.589844 353.085938 495.152344 344.589844 497.136719 349.996094 C 499.121094 355.179688 494.496094 356.28125 494.050781 361.691406 C 493.609375 366.871094 495.042969 371.394531 492.503906 373.929688 C 489.300781 377.125 481.25 373.378906 478.714844 370.839844 C 476.289062 368.410156 473.195312 364.550781 469.886719 364.550781 C 466.574219 364.550781 455.429688 365.433594 456.203125 367.863281 C 457.089844 370.394531 460.398438 372.054688 467.792969 372.054688 C 473.636719 372.054688 484.339844 385.730469 487.652344 387.378906 C 490.960938 389.039062 500.121094 395.652344 498.464844 398.960938 C 496.804688 402.269531 494.710938 402.269531 491.84375 401.0625 C 487.984375 399.402344 487.542969 395.101562 483.347656 395.984375 C 479.15625 396.867188 475.296875 403.59375 470.328125 405.246094 C 464.480469 407.230469 453.113281 408.113281 447.160156 406.128906 C 439.433594 403.488281 433.476562 400.0625 429.394531 394.992188 C 424.542969 388.929688 420.675781 380.542969 414.9375 371.390625 C 409.09375 362.242188 400.816406 351.980469 395.847656 352.753906 C 390.886719 353.527344 389.230469 364.335938 390.003906 373.816406 C 390.886719 383.960938 395.847656 390.355469 394.195312 394.550781 C 392.539062 398.742188 386.144531 404.695312 385.917969 411.535156 C 385.476562 421.460938 392.210938 417.046875 392.210938 421.238281 C 392.210938 425.433594 391.105469 431.9375 387.792969 431.050781 C 384.484375 430.175781 377.972656 429.175781 377.207031 434.363281 C 376.324219 440.207031 379.742188 438.882812 384.265625 439.765625 C 388.460938 440.648438 388.351562 446.933594 389.230469 449.46875 C 390.003906 452.003906 390.777344 455.097656 394.53125 456.75 C 400.707031 459.507812 401.699219 453.222656 408.320312 454.320312 C 414.613281 455.421875 415.488281 456.855469 419.574219 458.074219 C 424.984375 459.726562 432.484375 457.847656 434.136719 455.3125 C 435.796875 452.78125 434.46875 446.050781 432.042969 442.742188 C 429.503906 439.4375 427.519531 432.710938 431.601562 431.9375 C 436.5625 431.160156 439.433594 437.5625 440.316406 439.988281 C 441.199219 442.414062 444.398438 447.59375 447.492188 451.238281 C 450.136719 454.320312 453.226562 455.207031 456.980469 458.839844 C 460.730469 462.59375 461.5 465.460938 462.382812 468.328125 C 463.488281 472.296875 472.753906 473.730469 475.179688 477.042969 C 477.613281 480.351562 477.613281 486.964844 481.804688 492.808594 C 486 498.652344 490.519531 502.296875 486.324219 507.257812 C 482.132812 512.21875 470.992188 498.988281 463.15625 490.714844 C 456.3125 483.4375 446.609375 472.082031 440.757812 472.082031 C 434.914062 472.082031 434.914062 478.25 437.445312 489.832031 C 439.988281 501.414062 441.199219 508.03125 442.855469 508.914062 C 444.507812 509.683594 447.375 508.472656 449.035156 509.242188 C 450.6875 510.015625 456.539062 521.371094 464.039062 526.335938 C 471.542969 531.300781 479.816406 535.164062 487.316406 532.734375 C 494.820312 530.195312 492.175781 523.90625 493.828125 522.257812 C 495.488281 520.597656 504.640625 517.296875 508.726562 517.296875 C 512.808594 517.296875 513.800781 504.171875 513.800781 501.746094 C 513.800781 499.320312 510.375 495.351562 511.261719 492.039062 C 512.144531 488.730469 516.335938 484.980469 516.335938 483.328125 C 516.335938 481.667969 516.996094 472.1875 519.429688 466.011719 C 522.296875 458.515625 527.039062 445.609375 525.382812 434.027344 C 524.507812 427.417969 524.613281 421.238281 527.039062 412.96875 C 529.574219 404.695312 530.792969 401.277344 529.574219 393.890625 C 528.140625 386.054688 526.816406 382.085938 526.816406 377.898438 C 526.816406 374.148438 521.082031 368.746094 522.074219 361.574219 C 522.515625 358.265625 525.941406 349.109375 526.15625 342.605469 C 526.707031 329.375 525.5 324.738281 523.066406 319.226562 C 519.648438 311.398438 514.128906 303.570312 511.375 302.578125 C 503.539062 299.710938 505.632812 295.515625 502.214844 292.980469 C 500.121094 291.4375 496.8125 286.363281 501 285.476562 C 505.191406 284.601562 508.066406 286.253906 513.800781 284.269531 C 520.089844 282.058594 519.648438 275.113281 522.957031 275.113281 C 526.265625 275.113281 536.863281 277.539062 535.867188 280.074219 C 534.542969 283.277344 532.117188 291.105469 544.582031 284.160156 C 548.222656 282.175781 550.433594 279.632812 554.519531 282.175781 C 558.703125 284.601562 554.953125 288.789062 552.417969 291.324219 C 549.882812 293.863281 541.273438 296.292969 541.273438 297.941406 C 541.273438 299.59375 539.621094 303.789062 544.582031 303.789062 C 549.550781 303.789062 555.726562 300.035156 557.386719 298.382812 C 559.039062 296.726562 560.136719 292.980469 563.5625 292.980469 C 567.757812 292.980469 566.097656 296.292969 573.492188 295.515625 C 580.996094 294.632812 583.863281 291.324219 587.171875 278.089844 C 590.484375 264.859375 594.125 239.054688 595.777344 224.164062 C 597.433594 209.273438 598.320312 198.25 598.871094 195.273438 C 599.527344 191.1875 601.628906 187.003906 603.28125 185.34375 C 604.9375 183.691406 609.898438 172.113281 613.210938 169.578125 C 616.519531 167.035156 624.027344 167.917969 620.710938 175.421875 C 617.402344 182.917969 612.441406 186.445312 611.890625 191.964844 C 611.449219 197.035156 614.867188 204.421875 614.09375 208.503906 C 613.214844 212.691406 604.9375 213.464844 605.820312 220.085938 C 606.707031 226.699219 608.691406 243.683594 608.691406 247.765625 C 608.691406 251.953125 600.960938 253.496094 602.621094 259.347656 C 604.273438 265.078125 605.820312 268.828125 603.394531 273.789062 C 600.855469 278.75 596.660156 287.246094 595.894531 290.554688 C 595.007812 293.863281 593.902344 309.855469 590.816406 311.285156 C 585.40625 313.710938 577.578125 311.285156 573.601562 314.375 C 570.398438 316.910156 568.640625 322.648438 564.445312 322.648438 C 560.253906 322.648438 556.945312 325.074219 553.632812 327.609375 C 550.324219 330.144531 547.890625 337.972656 552.75 335.4375 C 557.710938 332.902344 568.859375 325.074219 573.050781 325.074219 C 577.242188 325.074219 582.539062 325.074219 585.078125 324.296875 C 587.613281 323.53125 595.894531 320.113281 599.96875 316.800781 C 604.164062 313.492188 605.929688 306.429688 605.929688 304.78125 C 605.929688 303.128906 614.425781 303.894531 614.425781 307.207031 C 614.425781 310.515625 616.96875 321.429688 615.308594 324.738281 C 613.652344 328.050781 607.699219 333.011719 607.699219 333.011719 C 607.699219 333.011719 595.894531 337.535156 596.660156 341.722656 C 597.433594 345.917969 607.03125 343.816406 612 342.164062 C 616.96875 340.515625 624.796875 334.335938 626.453125 335.988281 C 628.105469 337.644531 621.046875 346.800781 623.585938 355.070312 C 626.121094 363.34375 641.789062 364.992188 647.636719 362.457031 C 653.484375 359.921875 654.148438 356.832031 656.683594 355.953125 C 659.226562 355.179688 667.828125 354.296875 672.023438 355.953125 C 676.214844 357.605469 682.503906 359.480469 682.503906 362.015625 C 682.503906 364.550781 674.230469 366.535156 675.882812 370.730469 C 677.542969 374.921875 680.410156 374.921875 685.371094 374.039062 C 690.339844 373.15625 696.183594 374.921875 702.804688 376.574219 C 709.421875 378.226562 730.054688 384.070312 738.558594 387.164062 C 743.300781 388.8125 748.378906 395.984375 748.378906 407.566406 C 748.378906 419.144531 747.9375 431.828125 744.625 432.042969 C 738.558594 432.378906 737.890625 417.269531 733.808594 409 C 729.394531 400.0625 718.917969 393.667969 717.257812 395.324219 C 715.605469 396.976562 712.738281 399.84375 718.476562 406.464844 C 724.320312 413.078125 727.1875 416.386719 727.1875 421.347656 C 727.1875 426.308594 727.855469 430.167969 728.738281 432.378906 C 729.730469 435.136719 734.691406 439.765625 733.808594 443.292969 C 732.597656 448.367188 721.117188 447.152344 717.808594 444.285156 C 715.273438 442.082031 716.046875 419.804688 713.507812 415.609375 C 710.972656 411.425781 703.136719 395.765625 696.515625 392.457031 C 689.898438 389.148438 682.835938 392.457031 685.371094 399.953125 C 687.914062 407.457031 689.5625 417.378906 693.648438 419.804688 C 697.734375 422.339844 701.8125 428.074219 701.8125 428.074219 L 701.042969 433.035156 C 701.042969 433.035156 701.042969 444.617188 702.695312 447.925781 C 704.351562 451.238281 709.3125 453.664062 710.195312 456.199219 C 711.082031 458.734375 715.164062 471.089844 719.359375 476.933594 C 723.542969 482.777344 721.894531 485.089844 727.738281 485.089844 C 733.589844 485.089844 735.242188 480.460938 736.898438 474.722656 C 738.550781 468.878906 756.207031 470.203125 756.207031 470.203125 C 756.207031 470.203125 745.613281 518.503906 740.542969 530.96875 C 738.667969 535.597656 711.632812 589.523438 701.917969 605.296875 C 691.773438 621.621094 652.933594 669.039062 644.4375 675.109375 C 638.261719 679.519531 612.109375 702.015625 611.332031 703.667969 C 610.457031 705.324219 544.691406 742.484375 540.496094 744.910156 C 536.3125 747.453125 480.257812 766.304688 467.792969 767.964844 C 455.320312 769.617188 397.613281 773.808594 391.769531 773.257812 C 382.5 772.375 340.902344 767.855469 327.996094 765.207031 C 314.972656 762.445312 227.039062 730.136719 220.96875 726.496094 C 212.582031 721.53125 139.648438 662.753906 136.335938 660.328125 C 133.027344 657.792969 78.523438 581.917969 75.652344 575.300781 C 73.121094 569.457031 53.035156 524.574219 52.261719 518.730469 C 51.378906 512.882812 34.722656 442.523438 33.945312 436.789062 C 33.0625 430.941406 34.0625 380.984375 34.9375 371.0625 C 35.929688 359.699219 43.433594 320.21875 45.09375 311.949219 C 46.75 303.679688 60.871094 264.859375 71.570312 241.699219 C 82.382812 218.542969 97.722656 199.902344 115.042969 179.28125 C 132.476562 158.546875 182.238281 115.425781 186.429688 109.6875 C 190.40625 102.96875 199.785156 99.324219 199.785156 99.324219 Z M 57.671875 489.941406 C 57.445312 493.476562 68.816406 497.777344 65.832031 502.628906 C 59.4375 512.992188 75.320312 517.070312 72.234375 523.140625 C 69.144531 529.203125 67.160156 536.371094 63.632812 534.386719 C 58.996094 531.851562 45.976562 488.839844 43.992188 478.691406 C 43 473.515625 39.355469 442.082031 39.90625 434.914062 C 40.457031 427.742188 48.292969 425.316406 49.066406 424.765625 C 51.601562 422.78125 73.121094 413.960938 76.097656 412.527344 C 81.0625 410.207031 95.519531 397.195312 96.953125 394.21875 C 98.496094 391.132812 99.046875 383.300781 99.488281 376.90625 C 99.820312 371.503906 100.8125 365.660156 97.503906 364.660156 C 93.527344 363.449219 89.117188 365.984375 88.34375 369.738281 C 87.574219 373.488281 85.257812 382.203125 81.722656 381.425781 C 75.210938 380.101562 72.011719 392.234375 72.011719 395.652344 C 72.011719 403.152344 57.890625 404.363281 58.222656 398.191406 C 58.445312 394.550781 64.839844 373.707031 65.066406 366.09375 C 65.175781 360.472656 59.105469 355.289062 61.972656 349.445312 C 64.289062 344.816406 65.390625 327.390625 66.167969 324.523438 C 69.257812 318.894531 82.941406 314.816406 76.320312 332.683594 C 74.328125 337.980469 71.683594 344.699219 77.53125 347.125 C 80.957031 348.453125 83.15625 348.34375 88.453125 336.761719 C 91.984375 329.152344 105.222656 332.683594 99.15625 345.367188 C 93.859375 356.28125 106.109375 354.738281 108.757812 355.839844 C 111.402344 356.945312 111.84375 362.234375 111.515625 365.660156 C 110.960938 370.511719 116.585938 371.613281 120.671875 370.730469 C 124.863281 369.847656 142.296875 360.582031 152.890625 362.566406 C 165.03125 364.882812 170.214844 366.761719 173.96875 368.195312 C 177.71875 369.738281 183.894531 369.738281 182.355469 364.441406 C 180.804688 359.148438 186.539062 349.445312 187.316406 345.691406 C 188.089844 341.949219 195.484375 337.863281 194.160156 333.785156 C 192.832031 329.707031 179.703125 324.632812 176.726562 324.1875 C 173.300781 323.746094 170.214844 335.550781 169.550781 342.390625 C 168.78125 349.226562 158.1875 349.335938 155.976562 343.265625 C 152.890625 335.109375 148.367188 334.667969 146.273438 323.972656 C 144.839844 316.578125 138.105469 316.359375 133.027344 312.28125 C 123.980469 305.003906 131.375 299.601562 131.042969 296.507812 C 129.941406 287.578125 120.78125 286.472656 117.695312 290.113281 C 114.492188 293.863281 109.199219 289.5625 105.773438 289.230469 C 100.703125 288.679688 88.015625 290.773438 82.605469 291.4375 C 74.996094 292.429688 74.003906 296.175781 72.894531 299.269531 C 70.359375 306.4375 55.6875 296.617188 55.6875 296.617188 C 55.6875 296.617188 74.660156 256.371094 78.523438 245.117188 C 81.832031 235.410156 97.945312 211.375 98.9375 208.945312 C 101.472656 202.328125 110.632812 212.472656 102.023438 224.714844 C 96.511719 232.433594 81.171875 258.238281 76.539062 272.027344 C 73.777344 280.410156 87.683594 279.417969 90.332031 274.011719 C 92.09375 270.59375 105.117188 244.457031 111.183594 233.761719 C 117.253906 223.171875 131.484375 198.574219 134.136719 192.515625 C 136.785156 186.558594 142.847656 180.714844 145.832031 174.648438 C 148.808594 168.585938 158.738281 168.035156 154.984375 180.714844 C 151.125 193.613281 132.59375 223.171875 127.957031 229.566406 C 123.648438 235.746094 109.859375 259.898438 109.085938 263.640625 C 108.316406 267.394531 107.324219 273.019531 109.640625 273.789062 C 111.960938 274.5625 122.4375 270.703125 125.414062 266.183594 C 128.507812 261.65625 139.539062 232.324219 143.40625 226.921875 C 147.15625 221.628906 155.535156 204.203125 160.0625 198.910156 C 164.589844 193.613281 175.066406 200.894531 170.214844 209.054688 C 158.960938 227.914062 147.375 251.183594 142.738281 257.472656 C 137.21875 264.75 143.289062 275.339844 151.898438 266.625 C 159.511719 259.015625 162.929688 250.085938 166.683594 243.242188 C 170.433594 236.402344 176.167969 227.140625 178.378906 223.394531 C 180.695312 219.644531 189.964844 222.953125 188.421875 229.015625 C 186.875 235.085938 179.371094 248.425781 174.734375 252.945312 C 170.214844 257.472656 167.566406 263.09375 165.246094 267.726562 C 162.929688 272.246094 165.246094 276.214844 169.992188 279.308594 C 176.058594 283.167969 179.042969 282.945312 183.5625 287.46875 C 188.089844 291.988281 192.609375 297.390625 197.136719 299.710938 C 201.660156 302.019531 208.171875 303.570312 211.148438 309.632812 C 214.242188 315.699219 218.761719 326.722656 226.707031 329.699219 C 233.214844 332.128906 235.09375 334.667969 239.285156 339.964844 C 245.246094 347.566406 247.671875 349.335938 252.964844 349.109375 C 259.367188 348.785156 259.035156 356.722656 260.136719 362.792969 C 260.800781 366.644531 254.398438 378.007812 254.398438 384.070312 C 254.398438 390.140625 255.726562 407.230469 250.648438 409.875 C 247.003906 411.75 238.953125 407.230469 235.867188 410.097656 C 232.773438 412.859375 225.269531 411.425781 223.285156 408.449219 C 220.527344 404.363281 215.117188 404.03125 212.800781 406.023438 C 208.722656 409.550781 203.539062 408.558594 200.554688 405.6875 C 198.570312 403.703125 193.050781 405.355469 189.742188 406.789062 C 180.144531 410.984375 181.578125 402.378906 181.578125 402.378906 C 181.578125 402.378906 184.230469 394.882812 187.648438 394.882812 C 190.40625 394.882812 194.484375 397.085938 196.800781 396.316406 C 199.011719 395.542969 201.769531 389.253906 204.972656 386.722656 C 208.171875 384.1875 212.367188 383.300781 210.375 378.226562 C 209.164062 375.25 212.140625 372.496094 214.457031 371.832031 C 218.871094 370.394531 224.277344 370.839844 226.371094 368.410156 C 227.921875 366.535156 227.589844 358.046875 222.292969 353.527344 C 216.992188 349.003906 202.761719 352.972656 201.21875 363.667969 C 199.34375 377.347656 186.65625 382.859375 178.601562 384.953125 C 168.339844 387.605469 164.914062 384.953125 156.535156 380.433594 C 148.148438 375.914062 130.492188 375.691406 123.539062 378.339844 C 117.363281 380.652344 113.609375 390.140625 119.128906 390.140625 C 124.53125 390.140625 137.554688 392.566406 143.40625 392.566406 C 151.785156 392.566406 158.738281 395.652344 161.828125 402.269531 C 165.472656 409.765625 165.246094 409.765625 154.660156 408.332031 C 132.699219 405.355469 111.292969 409.550781 99.046875 412.96875 C 94.636719 414.175781 79.40625 427.632812 77.089844 428.734375 C 75.4375 429.507812 64.398438 435.570312 56.679688 441.421875 C 48.953125 447.269531 50.277344 453.878906 51.601562 461.269531 C 51.933594 463.144531 54.144531 475.609375 54.695312 477.59375 C 54.695312 477.59375 61.53125 470.097656 63.40625 467.886719 C 65.28125 465.679688 79.1875 457.742188 86.359375 449.027344 C 92.867188 441.199219 111.734375 430.394531 117.472656 427.632812 C 134.027344 419.804688 152.890625 420.6875 157.304688 422.230469 C 161.71875 423.882812 170.765625 430.394531 165.140625 436.128906 C 159.511719 441.859375 149.800781 449.253906 145.722656 451.679688 C 141.636719 454.105469 137.554688 451.128906 134.792969 453.988281 C 131.925781 456.855469 124.316406 463.476562 120.894531 463.253906 C 110.191406 462.703125 96.730469 466.011719 92.867188 466.785156 C 85.699219 468.328125 72.453125 473.074219 67.382812 476.601562 C 62.199219 480.460938 57.78125 486.414062 57.671875 489.941406 Z M 57.671875 489.941406 " fill-opacity="1" fill-rule="evenodd"/></svg>