<?xml version="1.0" standalone="no"?>
<!DOCTYPE svg PUBLIC "-//W3C//DTD SVG 20010904//EN"
 "http://www.w3.org/TR/2001/REC-SVG-20010904/DTD/svg10.dtd">
<svg version="1.0" xmlns="http://www.w3.org/2000/svg"
 width="200.000000pt" height="200.000000pt" viewBox="0 0 200.000000 200.000000"
 preserveAspectRatio="xMidYMid meet">

<g transform="translate(0.000000,200.000000) scale(0.100000,-0.100000)"
fill="#000000" stroke="none">
<path d="M165 1310 c-38 -42 -9 -110 47 -110 57 0 91 76 50 113 -25 23 -75 21
-97 -3z"/>
<path d="M757 1223 c-4 -3 -7 -23 -7 -44 0 -28 -5 -38 -20 -42 -15 -4 -20 -14
-20 -41 0 -29 4 -36 20 -36 19 0 20 -7 20 -106 0 -135 5 -144 75 -144 l55 0 0
34 c0 25 -5 35 -20 39 -18 5 -20 14 -20 91 0 79 2 86 20 86 17 0 20 7 20 40 0
33 -3 40 -20 40 -17 0 -20 7 -20 45 l0 45 -38 0 c-21 0 -42 -3 -45 -7z"/>
<path d="M493 1135 c-18 -8 -33 -20 -34 -27 0 -7 -4 -3 -9 8 -8 21 -25 24 -82
15 -5 -1 -8 -73 -8 -161 l0 -160 45 0 45 0 0 113 c0 98 3 116 18 130 23 21 56
22 76 1 13 -12 16 -39 16 -130 l0 -114 45 0 45 0 0 120 c0 145 -12 184 -64
205 -43 18 -52 18 -93 0z"/>
<path d="M1098 1134 c-16 -8 -28 -20 -29 -27 0 -7 -4 -2 -9 10 -7 17 -15 21
-37 18 -15 -2 -34 -4 -40 -4 -10 -1 -13 -40 -13 -161 l0 -160 45 0 45 0 0 98
c0 110 11 136 60 147 28 6 30 10 30 51 0 48 -8 53 -52 28z"/>
<path d="M1666 1136 c-81 -30 -122 -98 -114 -188 13 -129 163 -196 274 -123
l27 17 -32 31 c-24 25 -33 29 -43 19 -7 -7 -29 -12 -50 -12 -54 0 -88 35 -88
90 0 55 34 90 88 90 21 0 43 -5 49 -11 8 -8 20 -5 42 12 36 27 35 37 -5 61
-42 25 -103 30 -148 14z"/>
<path d="M1210 1128 c0 -7 23 -83 52 -169 l51 -156 -26 -66 c-15 -37 -27 -70
-27 -73 0 -3 21 -4 47 -2 l48 3 91 230 c51 127 89 234 84 238 -4 5 -25 7 -46
5 l-39 -3 -38 -94 c-21 -52 -39 -96 -41 -98 -2 -2 -17 42 -35 97 l-32 100 -44
0 c-29 0 -45 -4 -45 -12z"/>
<path d="M170 970 l0 -160 45 0 45 0 0 160 0 160 -45 0 -45 0 0 -160z"/>
</g>
</svg>
